<svg xmlns="http://www.w3.org/2000/svg" viewBox="0 0 218.32 228.19"><defs><style>.cls-1{fill:#b33d8f;}</style></defs><g id="Capa_2" data-name="Capa 2"><g id="Capa_1-2" data-name="Capa 1"><path class="cls-1" d="M107.72,228.19a18.8,18.8,0,0,1-8.85-2.07C85.5,219,88,194.34,91.64,180.92a75.31,75.31,0,0,1,13.71-27,73.57,73.57,0,0,0-5.09-6.31c-13.22,17-36.19,40.74-67,41.25-8.48.14-20.08-1.23-27.09-8.53l-.07-.08c-7.36-7.59-7.23-20.38-3.83-29.7,8.3-22.81,42.91-37,72.61-29.7a63.1,63.1,0,0,1,24,11.79l1.69-2.41c.49-.7.94-1.36,1.36-1.95,1.42-2,2.82-4.13,4.17-6.31a165.35,165.35,0,0,1-22-1.88c-21.11-3.3-48.66-11.3-60-30.65-1.15-2-6.6-12.13-1.42-21.07A18.49,18.49,0,0,1,36.5,59.45c20.69-1.63,37.4,21.37,42,28.46a5,5,0,0,1-8.38,5.46c-2.75-4.21-17.25-25.19-32.86-24a8.6,8.6,0,0,0-6,4c-2,3.43,0,8.68,1.39,11C40,96.83,58.84,106,85.66,110.21A161.25,161.25,0,0,0,111.78,112c16.44-31.32,24.91-71.83,12.9-94.16l-.15-.28C120.84,10.47,115,8.34,107,11.25c-5.35,2-10.27,11.9-13.16,26.57C92.28,46,91,64.2,100.56,95a5,5,0,1,1-9.55,3c-9.68-31.2-9.12-50.95-6.94-62,3.78-19.21,10.35-30.66,19.52-34,12.65-4.65,23.8-.5,29.82,11.1l.08.16c10.1,18.78,7.34,43.39,3.26,60.72a184.13,184.13,0,0,1-13.47,37.59c3-.26,6.13-.64,9.28-1.13a67.19,67.19,0,0,1,13.86-30c7.2-8.59,25.47-23.48,43-18.28,3,.87,8.24,5,10.19,11.07,3.67,11.45-10,22-15.82,26.55l-.55.42c-12.83,10-27.52,15.64-41.71,18.72a57.88,57.88,0,0,0,0,9.31c.7-.24,1.4-.46,2.11-.68,5.34-1.63,33.19-9,56.9,6,5.29,3.35,16.3,10.32,17.61,22.76,1,9.54-4.41,20.28-12.88,25.54s-20.61,5.22-33.48,0a68.6,68.6,0,0,1-30.13-23.88,58.06,58.06,0,0,1-7.59-15.56,69.19,69.19,0,0,0-16.27,12.49q2.57,4.32,4.93,9.35c.78,1.65,18.74,40.68,1,57.78A23.52,23.52,0,0,1,107.72,228.19ZM111,163a65.06,65.06,0,0,0-9.73,20.54c-3.61,13.46-3.56,30.64,2.3,33.78,3.6,1.93,9.79.7,13.24-2.62,10.45-10.07,1-37.52-3.11-46.34C112.85,166.46,112,164.68,111,163Zm-52.5-34c-20.84,0-41.52,10.29-46.89,25-1.88,5.16-3,14.56,1.62,19.32l.1.11c3.53,3.67,10.54,5.59,19.71,5.46,27.21-.45,47.67-22.11,59.89-38.11a53,53,0,0,0-20.48-10.19A58.86,58.86,0,0,0,58.52,128.93ZM143.37,138A47.67,47.67,0,0,0,150,152.15c12.21,17.76,38,28.58,50.09,21,4.51-2.79,8.92-9.35,8.22-16-.8-7.63-8.75-12.66-13-15.36-20.44-12.94-45.81-5.75-48.63-4.89Q145,137.45,143.37,138Zm-37.06,1.38a80.66,80.66,0,0,1,5.87,6.89,79.28,79.28,0,0,1,19.69-14.15,65.51,65.51,0,0,1-.53-11.6c-4.65.64-9.19,1-13.52,1.25-2.44,4.29-5,8.38-7.73,12.22l-1.34,1.91C108,137,107.21,138.15,106.31,139.42ZM182,70.94c-10.59,0-22.3,9.1-27.88,15.77a55.21,55.21,0,0,0-10.71,21.39,91.06,91.06,0,0,0,33.76-16l.56-.43c11.54-8.93,13.13-13.4,12.43-15.58a9.16,9.16,0,0,0-3.71-4.6A16.29,16.29,0,0,0,182,70.94Zm4.62.64h0Z"/></g></g></svg>